<?xml version="1.0" standalone="no"?>
<!DOCTYPE svg PUBLIC "-//W3C//DTD SVG 20010904//EN"
 "http://www.w3.org/TR/2001/REC-SVG-20010904/DTD/svg10.dtd">
<svg version="1.0" xmlns="http://www.w3.org/2000/svg"
 width="152.000000pt" height="152.000000pt" viewBox="0 0 152.000000 152.000000"
 preserveAspectRatio="xMidYMid meet">

<g transform="translate(0.000000,152.000000) scale(0.100000,-0.100000)"
fill="#000000" stroke="none">
<path d="M763 1474 c-1 -27 -5 -59 -8 -71 -4 -18 -1 -23 15 -23 15 0 20 7 20
25 0 37 35 33 49 -5 7 -20 17 -30 31 -30 19 0 20 2 7 26 -13 24 -12 29 4 45
38 38 12 68 -61 76 l-55 5 -2 -48z m97 1 c0 -10 -10 -15 -30 -15 -20 0 -30 5
-30 15 0 10 10 15 30 15 20 0 30 -5 30 -15z"/>
<path d="M587 1503 c-25 -4 -28 -8 -23 -29 4 -13 9 -45 13 -70 l6 -46 36 7
c20 3 49 11 64 17 24 9 28 15 22 37 -3 14 -7 36 -9 48 -8 44 -23 49 -109 36z
m73 -32 c0 -10 -24 -21 -46 -21 -8 0 -14 7 -14 15 0 10 10 15 30 15 17 0 30
-4 30 -9z m13 -55 c2 -11 -51 -31 -60 -22 -3 3 -3 12 1 21 6 17 55 18 59 1z"/>
<path d="M968 1417 c-39 -42 -45 -53 -32 -60 10 -6 19 -4 27 6 16 20 57 5 57
-22 0 -15 18 -31 34 -31 1 0 2 33 2 73 -1 105 -18 111 -88 34z m52 -12 c0 -8
-7 -15 -16 -15 -14 0 -14 3 -4 15 7 8 14 15 16 15 2 0 4 -7 4 -15z"/>
<path d="M370 1413 c-19 -13 -41 -28 -48 -32 -9 -5 -5 -21 20 -64 18 -31 36
-56 40 -57 16 0 98 56 98 67 0 18 -7 16 -46 -8 -31 -19 -54 -19 -54 0 0 4 11
13 24 21 14 7 22 18 19 26 -4 11 -10 10 -29 -3 -17 -11 -28 -13 -35 -6 -8 8 2
18 30 35 32 19 39 27 29 35 -10 8 -23 4 -48 -14z"/>
<path d="M1148 1372 c-9 -15 -28 -40 -42 -55 -23 -25 -24 -28 -7 -36 14 -8 21
-4 35 20 9 16 21 29 26 29 5 0 10 -26 12 -57 2 -35 8 -58 14 -58 6 0 30 23 52
52 33 41 38 54 28 62 -10 8 -19 2 -39 -26 l-27 -38 0 56 c0 48 -12 79 -30 79
-3 0 -13 -12 -22 -28z"/>
<path d="M229 1304 c-11 -13 -10 -18 4 -25 23 -13 21 -32 -4 -55 -20 -18 -21
-18 -38 5 -16 20 -19 21 -31 7 -7 -9 -11 -18 -9 -19 2 -1 26 -22 52 -45 39
-35 51 -41 62 -32 12 10 11 15 -7 30 -21 17 -21 18 -5 44 21 31 33 33 49 6 15
-24 24 -25 31 -6 3 8 -14 33 -43 60 -42 40 -50 44 -61 30z"/>
<path d="M1283 1212 c-29 -20 -53 -40 -53 -44 0 -4 18 -26 39 -48 32 -34 44
-40 63 -35 26 7 68 50 68 69 0 13 -51 96 -60 96 -3 -1 -29 -18 -57 -38z m77
-46 c0 -46 -54 -63 -78 -25 -7 12 -12 22 -10 23 2 1 16 12 32 24 33 25 56 16
56 -22z"/>
<path d="M430 1153 c0 -16 -3 -58 -7 -95 -7 -84 6 -89 41 -13 19 42 36 62 72
85 26 16 54 30 60 30 7 0 16 5 19 10 4 6 -28 10 -89 10 l-96 0 0 -27z"/>
<path d="M710 781 c0 -433 2 -415 -58 -427 -69 -14 -146 41 -163 115 -19 84
31 181 101 196 36 8 38 18 5 33 -36 17 -59 68 -59 134 1 61 17 95 63 136 l26
23 -47 -4 c-65 -6 -119 -36 -140 -78 -39 -76 -12 -157 67 -200 l48 -27 -34 -7
c-98 -20 -155 -88 -147 -175 6 -64 39 -107 107 -139 55 -26 59 -26 281 -26
l225 0 60 30 c72 36 96 68 103 133 8 89 -48 156 -147 177 l-34 7 44 22 c59 30
89 76 89 135 0 82 -55 135 -151 148 -47 7 -48 0 -10 -36 29 -27 51 -84 51
-131 -1 -40 -37 -109 -65 -122 -33 -15 -32 -25 5 -33 92 -20 141 -165 82 -244
-30 -41 -67 -63 -115 -68 -36 -4 -49 -1 -66 16 -21 21 -21 27 -21 416 l0 395
-50 0 -50 0 0 -399z"/>
<path d="M910 1175 c0 -2 22 -16 49 -29 58 -30 96 -73 112 -126 7 -22 16 -40
21 -40 9 0 11 108 2 163 l-7 37 -88 0 c-49 0 -89 -2 -89 -5z"/>
<path d="M79 1104 c-17 -35 -22 -57 -16 -61 6 -4 17 3 25 15 l14 21 48 -29
c40 -24 49 -26 54 -13 8 21 3 27 -44 48 -39 17 -51 37 -30 50 6 4 8 11 5 16
-13 20 -31 5 -56 -47z"/>
<path d="M1440 984 c-19 -7 -48 -13 -64 -13 -27 -1 -28 -3 -21 -37 15 -82 39
-109 76 -86 10 7 28 12 38 12 30 0 39 26 28 79 -5 25 -12 49 -16 52 -3 3 -22
0 -41 -7z m34 -56 c9 -34 8 -38 -9 -38 -8 0 -15 6 -15 14 0 8 -3 21 -6 30 -4
10 -1 16 9 16 8 0 17 -10 21 -22z m-54 -23 c0 -52 -21 -48 -34 8 -5 23 -3 27
14 27 16 0 20 -7 20 -35z"/>
<path d="M10 851 c-19 -37 -12 -80 15 -93 30 -14 51 1 60 43 4 16 11 29 16 29
13 0 11 -44 -3 -58 -10 -10 -10 -15 2 -22 21 -14 40 15 40 62 0 31 -5 41 -25
50 -30 14 -51 -1 -60 -43 -4 -16 -11 -29 -16 -29 -12 0 -12 47 1 55 11 7 4 25
-10 25 -5 0 -14 -9 -20 -19z"/>
<path d="M1392 778 c-7 -7 -12 -31 -12 -55 0 -51 16 -63 89 -63 39 0 51 4 51
15 0 11 -12 15 -49 15 -55 0 -77 17 -66 50 6 19 13 21 61 18 46 -3 54 0 54 15
0 14 -9 17 -58 17 -32 0 -63 -5 -70 -12z"/>
<path d="M36 679 c-26 -20 -27 -25 -21 -73 4 -28 9 -53 11 -55 8 -8 134 22
134 33 0 6 -5 29 -10 51 -15 66 -63 84 -114 44z m89 -46 c8 -32 6 -33 -44 -40
-40 -6 -41 -5 -41 26 0 24 6 34 22 40 33 12 55 2 63 -26z"/>
<path d="M1360 603 c0 -25 126 -57 135 -34 7 17 10 16 -50 30 -27 7 -58 14
-67 17 -13 4 -18 0 -18 -13z"/>
<path d="M1318 493 c-12 -27 -24 -51 -25 -54 -2 -4 3 -9 12 -13 11 -4 20 5 31
34 9 22 18 40 20 40 3 0 27 -11 53 -25 43 -21 50 -22 55 -8 4 9 5 16 4 17 -2
1 -29 14 -61 29 -31 15 -60 27 -63 27 -2 0 -14 -21 -26 -47z"/>
<path d="M125 499 c-27 -16 -54 -30 -59 -32 -5 -2 -7 -11 -3 -20 6 -15 9 -15
42 4 40 24 43 16 16 -40 -11 -25 -15 -44 -10 -54 8 -13 17 -11 66 16 32 16 59
31 61 32 1 1 0 9 -4 18 -5 14 -9 14 -37 -4 -18 -10 -35 -19 -38 -19 -4 0 2 25
14 55 12 33 16 59 11 64 -5 4 -31 -5 -59 -20z"/>
<path d="M1242 370 c-38 -45 -41 -79 -9 -107 41 -39 77 -34 115 15 l30 38 -52
46 -52 46 -32 -38z m65 -36 c33 -25 34 -27 17 -45 -38 -43 -101 -4 -74 45 7
14 16 26 18 26 3 0 20 -12 39 -26z"/>
<path d="M249 341 c-6 -17 -19 -46 -28 -65 -17 -32 -17 -36 -2 -50 14 -12 19
-12 34 -1 11 8 41 19 68 26 39 10 46 15 37 26 -6 7 -18 11 -28 8 -23 -7 -54
28 -46 53 11 34 -23 37 -35 3z m26 -72 c-10 -15 -25 -10 -19 6 4 8 10 12 15 9
5 -3 7 -10 4 -15z"/>
<path d="M1137 269 c-15 -9 -13 -15 25 -62 24 -29 44 -54 46 -56 1 -3 7 0 14
7 8 8 4 21 -18 48 -16 21 -33 46 -39 55 -8 13 -14 15 -28 8z"/>
<path d="M390 223 c0 -20 -7 -31 -22 -38 -14 -6 -24 -20 -26 -35 -2 -20 6 -30
41 -52 24 -16 46 -28 49 -28 3 0 22 27 41 60 35 57 35 60 17 70 -16 8 -20 7
-20 -3 0 -20 -23 -37 -37 -29 -6 4 -13 23 -15 41 -4 43 -28 55 -28 14z m21
-73 c16 -9 28 -40 14 -40 -16 0 -55 26 -55 37 0 16 14 17 41 3z"/>
<path d="M1071 221 c-10 -7 -10 -15 4 -41 9 -17 14 -34 12 -36 -3 -3 -25 4
-50 16 -70 33 -80 19 -43 -57 23 -46 35 -60 44 -54 12 7 11 14 -3 41 -9 17
-14 34 -12 37 3 2 24 -5 47 -17 22 -11 49 -18 60 -15 17 5 17 8 -6 55 -13 28
-24 54 -24 59 0 15 -15 21 -29 12z"/>
<path d="M535 141 c-3 -11 -3 -26 0 -31 4 -6 1 -17 -5 -25 -22 -27 -2 -52 51
-65 28 -7 52 -11 54 -9 10 11 33 125 26 132 -4 4 -33 11 -63 14 -51 5 -56 4
-63 -16z m81 -11 c8 0 14 -9 14 -20 0 -17 -4 -19 -27 -14 -16 4 -32 10 -37 14
-13 12 4 32 21 26 8 -3 21 -6 29 -6z m3 -67 c11 -9 -17 -22 -37 -17 -34 9 -29
36 6 28 15 -4 29 -9 31 -11z"/>
<path d="M814 134 c-25 -12 -30 -20 -26 -42 3 -25 7 -27 38 -24 21 3 34 10 34
19 0 10 -6 12 -21 8 -15 -5 -20 -3 -17 6 6 19 45 24 64 9 18 -16 18 -54 0 -69
-8 -7 -27 -11 -42 -9 -37 4 -42 -19 -5 -27 86 -19 137 94 61 135 -26 14 -49
12 -86 -6z"/>
</g>
</svg>
