<?xml version="1.0" encoding="utf-8"?>
<!-- Generator: Adobe Illustrator 19.0.0, SVG Export Plug-In . SVG Version: 6.00 Build 0)  -->
<svg version="1.1" id="Layer_1" xmlns="http://www.w3.org/2000/svg" xmlns:xlink="http://www.w3.org/1999/xlink" x="0px" y="0px"
	 viewBox="-240 400.9 114 40" style="enable-background:new -240 400.9 114 40;" xml:space="preserve">
<g>
	<path d="M-176.1,423.2c0.2,0,0.4,0.1,0.6,0.1c1,0.2,1.9,0.5,2.7,1.1c0.9,0.7,1.3,1.6,1.4,2.7c0,1.2-0.3,2.2-1.3,3
		c-0.5,0.4-1,0.7-1.6,0.9c-0.9,0.4-1.9,0.6-2.9,0.6c-2.4,0-4.7,0-7.1,0c-0.1,0-0.3,0-0.4,0c-1.2-0.1-2.4-0.4-3.5-1
		c-1.4-0.8-2.1-2.1-2-3.7c0.1-1.3,0.7-2.2,1.8-2.8c0.6-0.4,1.3-0.6,2-0.7c0.2,0,0.5-0.1,0.7-0.1c0.1,0,0.1,0,0.2-0.1
		c-0.1,0-0.2-0.1-0.4-0.1c-0.7-0.2-1.3-0.5-1.8-0.9c-1.5-1.2-1.6-3-0.9-4.4c0.3-0.6,0.9-1,1.5-1.3c0.8-0.4,1.6-0.5,2.4-0.6
		c0.1,0,0.2,0,0.2,0c0.1,0,0.1,0,0.1,0.1c0,0.1,0,0.1,0,0.2c0,0-0.1,0.1-0.1,0.1c-1,0.5-1.5,1.3-1.7,2.4c-0.2,1-0.2,2,0.2,3
		c0.3,0.7,0.8,1.2,1.4,1.5c0.2,0.1,0.3,0.2,0.5,0.3c0,0,0,0,0,0.1c-0.1,0-0.1,0.1-0.2,0.1c-0.2,0.1-0.5,0.1-0.7,0.2
		c-0.9,0.2-1.5,0.8-1.9,1.6c-0.6,1.2-0.7,2.5-0.3,3.8c0.4,1.1,1.9,2.3,3.4,2.1c0.3,0,0.6-0.1,0.8-0.1c0.5-0.1,0.8-0.4,0.9-0.9
		c0-0.2,0-0.4,0-0.5c0-4.6,0-9.3,0-13.9c0-1.4,0-2.8,0-4.3c0-0.2,0-0.2,0.2-0.2c0.6,0,1.2,0,1.9,0c0.2,0,0.2,0,0.2,0.2
		c0,0.1,0,0.2,0,0.3c0,5.9,0,11.7,0,17.6c0,0.3,0,0.6,0.1,0.9c0.1,0.4,0.3,0.6,0.7,0.7c2.2,0.6,4.5-0.8,4.7-3c0.1-0.7,0-1.5-0.2-2.2
		c-0.4-1.4-1.4-2.1-2.8-2.4c-0.1,0-0.2,0-0.2,0c0,0-0.1-0.1-0.1-0.1c0,0,0.1-0.1,0.1-0.1c0.2-0.1,0.3-0.2,0.5-0.2
		c0.8-0.4,1.2-1.1,1.4-2c0.3-1.2,0.2-2.3-0.3-3.4c-0.3-0.6-0.7-1-1.3-1.4c0,0-0.1,0-0.1-0.1c0-0.1-0.1-0.2-0.1-0.2
		c0,0,0.1-0.1,0.2-0.1c0.9,0.1,1.7,0.2,2.5,0.5c0.6,0.3,1.2,0.7,1.6,1.4c0.6,1.1,0.7,3.1-0.8,4.3
		C-174.5,422.5-175.2,422.9-176.1,423.2C-176.1,423.1-176.1,423.1-176.1,423.2C-176.1,423.1-176.1,423.1-176.1,423.2z"/>
	<path d="M-172.8,413.4c0.1,0.9,0.1,1.6,0.1,2.3c0,0.1,0,0.2-0.1,0.2c-0.3,0-0.3,0-0.4-0.1c-0.1-0.4-0.2-0.8-0.4-1.2
		c-0.4-1.1-1.3-1.9-2.3-2.5c-0.4-0.2-0.8-0.4-1.2-0.6c-0.1,0-0.1-0.1-0.2-0.1c-0.1-0.1-0.1-0.2,0-0.2c0,0,0.1,0,0.2,0
		c1.3,0,2.6,0,3.9,0c0.2,0,0.2,0,0.2,0.2C-172.8,412.1-172.8,412.9-172.8,413.4z"/>
	<path d="M-184.3,411.4c-0.1,0.1-0.2,0.1-0.2,0.2c-0.5,0.2-0.9,0.4-1.4,0.6c-1.3,0.7-2.1,1.8-2.5,3.2c0,0.1-0.1,0.2-0.1,0.3
		c0,0.2-0.1,0.2-0.3,0.2c-0.1,0-0.1-0.1-0.1-0.2c0-0.7,0.1-1.3,0.1-2c0-0.8,0.1-1.5,0.1-2.3c0-0.2,0-0.2,0.2-0.2c1.3,0,2.6,0,3.8,0
		C-184.5,411.2-184.4,411.3-184.3,411.4C-184.3,411.3-184.3,411.3-184.3,411.4z"/>
	<path d="M-185.6,403.7c0.3-0.1,0.6-0.1,0.9-0.2c0.5-0.1,0.9-0.2,1.4-0.2c0.7-0.1,1,0.5,1,1c0,0.2-0.1,0.3-0.2,0.5
		c0.6,0.2,0.8,0.9,0.4,1.4c-0.2,0.2-0.4,0.3-0.6,0.3c-0.7,0.1-1.4,0.3-2.1,0.4c0,0,0,0-0.1,0c0,0,0,0,0,0c0.2-0.1,0.1-0.3,0.1-0.5
		c-0.1-0.8-0.3-1.6-0.4-2.4C-185.5,403.9-185.6,403.8-185.6,403.7z M-184.4,406.2c0.1,0,0.2,0,0.3,0c0.4-0.1,0.7-0.1,1.1-0.2
		c0.2-0.1,0.3-0.2,0.3-0.5c0-0.2-0.2-0.4-0.4-0.3c-0.4,0.1-0.9,0.1-1.3,0.2C-184.5,405.6-184.4,405.9-184.4,406.2z M-184.6,404.8
		c0.1,0,0.2,0,0.2,0c0.4-0.1,0.7-0.1,1.1-0.2c0.2-0.1,0.3-0.2,0.2-0.4c0-0.2-0.2-0.3-0.4-0.3c-0.1,0-0.2,0-0.3,0.1
		c-0.3,0.1-0.6,0.1-1,0.2C-184.7,404.3-184.7,404.6-184.6,404.8z"/>
	<path d="M-166.6,416.4C-166.6,416.4-166.6,416.3-166.6,416.4c0.2,0.1,0.3,0.1,0.5,0c0.8-0.2,1.6-0.4,2.3-0.6c0.1,0,0.3-0.1,0.3-0.3
		c0,0,0.1,0.1,0.1,0.1c0.2,0.7,0.4,1.5,0.5,2.2c0.1,0.6-0.4,1.1-1,1c-0.1,0-0.3-0.1-0.4-0.2c0,0,0,0,0,0c-0.1,0.4-0.4,0.6-0.8,0.6
		c-0.4,0-0.7-0.1-0.9-0.5c-0.1-0.3-0.2-0.6-0.3-0.9c-0.1-0.5-0.2-0.9-0.3-1.4C-166.6,416.5-166.6,416.4-166.6,416.4z M-165.9,417
		c0.1,0.4,0.2,0.9,0.3,1.3c0.1,0.3,0.3,0.3,0.5,0.3c0.2-0.1,0.4-0.2,0.3-0.5c-0.1-0.4-0.2-0.9-0.3-1.3
		C-165.4,416.9-165.6,417-165.9,417z M-164.5,416.7c0,0.1,0.1,0.3,0.1,0.4c0.1,0.3,0.1,0.6,0.2,0.8c0.1,0.2,0.2,0.3,0.5,0.2
		c0.2-0.1,0.3-0.2,0.2-0.4c-0.1-0.3-0.1-0.6-0.2-1c0-0.1,0-0.2-0.1-0.3C-164.1,416.6-164.3,416.6-164.5,416.7z"/>
	<path d="M-185.9,437.2c-0.4-0.3-0.4-0.7-0.2-1c0.2-0.4,0.5-0.6,1-0.5c0.8,0.2,1.5,0.4,2.3,0.5c0,0,0,0.1,0,0.1
		c-0.2,0.1-0.2,0.2-0.2,0.3c-0.2,0.8-0.4,1.6-0.6,2.4c0,0.1,0,0.2,0.1,0.3c0,0,0,0,0,0.1c-0.1,0-0.3-0.1-0.4-0.1
		c-0.6-0.1-1.2-0.3-1.8-0.4c-0.1,0-0.1,0-0.2-0.1c-0.3-0.1-0.5-0.4-0.5-0.7C-186.5,437.6-186.3,437.4-185.9,437.2
		C-186,437.2-186,437.2-185.9,437.2z M-183.8,436.5c-0.2,0-0.3-0.1-0.4-0.1c-0.3-0.1-0.5-0.1-0.8-0.2c-0.3-0.1-0.4,0-0.5,0.3
		c-0.1,0.2,0,0.4,0.2,0.5c0.3,0.1,0.5,0.1,0.8,0.2c0.2,0,0.4,0.1,0.5,0.1C-183.9,437.1-183.9,436.8-183.8,436.5z M-184.1,437.9
		c-0.4-0.1-0.9-0.2-1.3-0.3c-0.2,0-0.3,0.1-0.4,0.3c0,0.2,0,0.3,0.2,0.4c0.4,0.1,0.8,0.2,1.3,0.3
		C-184.2,438.4-184.2,438.2-184.1,437.9z"/>
	<path d="M-189.5,435.1c0-0.4-0.1-0.9-0.1-1.3c0-0.1-0.1-0.1-0.1-0.2c0,0,0-0.1,0-0.1c0,0,0.1,0,0.1,0c0.3,0.2,0.6,0.3,0.8,0.5
		c0,0,0,0,0,0.1c0,0,0,0-0.1,0c-0.1,0-0.1,0.1-0.1,0.1c0,0.4,0,0.8,0.1,1.2c0,0,0,0.1,0.1,0.1c0.2,0.1,0.4,0.2,0.6,0.4
		c0.1-0.1,0.1-0.3,0.2-0.4c0.1-0.1,0.1-0.2,0.2-0.3c0.1-0.1,0.2-0.3,0.1-0.5c0,0,0,0,0,0c0.3,0.2,0.5,0.3,0.8,0.5c0,0,0,0,0,0
		c-0.2,0-0.3,0.2-0.3,0.3c-0.4,0.7-0.8,1.4-1.2,2.1c-0.1,0.1-0.1,0.2,0,0.3c0,0,0,0,0,0.1c0,0-0.1,0-0.1,0c-0.5-0.3-1.1-0.6-1.6-0.9
		c-0.1-0.1-0.3-0.2-0.4-0.3c-0.3-0.2-0.4-0.5-0.3-0.9c0.1-0.4,0.3-0.7,0.8-0.7C-189.9,435-189.7,435-189.5,435.1z M-188.5,436.3
		c-0.4-0.2-0.8-0.4-1.1-0.6c-0.2-0.1-0.3-0.1-0.5,0.1c-0.2,0.2-0.2,0.5,0.1,0.7c0.4,0.2,0.7,0.4,1.1,0.6
		C-188.8,436.8-188.6,436.6-188.5,436.3z"/>
	<path d="M-177.7,406.6c-0.4,0-0.7-0.1-1.1-0.1c0,0,0,0,0,0c0.2-0.1,0.1-0.2,0-0.3c-0.2-0.3-0.3-0.6-0.5-0.9c0-0.1-0.1-0.1-0.2-0.1
		c-0.2,0-0.4,0-0.7-0.1c0,0.4-0.1,0.7-0.1,1.1c0,0.1,0,0.1,0.1,0.2c0,0,0,0,0.1,0.1c-0.4,0-0.7-0.1-1-0.1c0,0,0,0,0,0
		c0.2-0.1,0.2-0.3,0.2-0.4c0.1-0.8,0.2-1.5,0.2-2.3c0-0.1,0.1-0.3-0.1-0.4c0,0,0,0,0,0c0.2,0,0.3,0,0.5,0c0.6,0.1,1.2,0.1,1.8,0.2
		c0.7,0.1,1.1,0.7,0.8,1.4c-0.1,0.3-0.3,0.4-0.6,0.5c-0.1,0-0.1,0-0.2,0c0.2,0.4,0.4,0.8,0.7,1.2
		C-177.8,406.5-177.7,406.5-177.7,406.6C-177.7,406.6-177.7,406.6-177.7,406.6z M-179.9,403.7c0,0.3-0.1,0.6-0.1,0.8
		c0.4,0,0.8,0.1,1.3,0.1c0.2,0,0.4-0.1,0.4-0.3c0.1-0.3,0-0.5-0.4-0.5C-179.1,403.7-179.5,403.7-179.9,403.7z"/>
	<path d="M-171.1,407.2c-0.3,0.4-0.7,0.8-1,1.3c-0.1,0.1-0.1,0.1-0.2,0.2c-0.1,0.1-0.1,0.2-0.1,0.3c0,0,0,0,0,0.1
		c-0.2-0.2-0.5-0.4-0.8-0.6c0,0,0.1,0,0.1,0c0.1,0,0.2-0.1,0.3-0.1c0.5-0.7,1-1.3,1.6-2c0.1-0.1,0.1-0.2,0.1-0.3c0,0,0,0,0-0.1
		c0.3,0.2,0.5,0.4,0.8,0.6c0,0,0,0,0,0c-0.2,0.1-0.2,0.1-0.2,0.3c0,0.7,0.1,1.3,0.1,2c0,0.1,0,0.2,0,0.3c0.2-0.3,0.4-0.5,0.5-0.7
		c0.2-0.2,0.4-0.5,0.6-0.7c0.1-0.1,0.2-0.2,0.1-0.3c0,0,0,0,0-0.1c0.2,0.2,0.5,0.4,0.7,0.6c0,0,0,0,0,0c-0.2,0-0.3,0.1-0.3,0.2
		c-0.5,0.7-1,1.3-1.5,2c-0.1,0.1-0.1,0.2-0.1,0.3c-0.2-0.2-0.5-0.4-0.8-0.6c0.3,0,0.3-0.2,0.2-0.3c0-0.7-0.1-1.4-0.2-2.2
		C-171,407.4-171,407.3-171.1,407.2z"/>
	<path d="M-172.8,434.1c-0.2,0.2,0,0.4,0.1,0.6c0.3,0.7,0.7,1.4,1,2.1c0,0.1,0.1,0.1,0.2,0.2c-0.3,0.1-0.6,0.3-0.9,0.4c0,0,0,0,0,0
		c0.1-0.2,0-0.2-0.2-0.3c-0.7-0.3-1.3-0.6-2-0.8c0,0-0.1,0-0.2-0.1c0,0.1,0,0.1,0.1,0.1c0.2,0.5,0.5,1,0.7,1.5
		c0,0.1,0.2,0.1,0.2,0.2c-0.3,0.1-0.5,0.2-0.8,0.4c0,0,0-0.1,0-0.1c0.1-0.1,0-0.3,0-0.4c-0.3-0.7-0.7-1.5-1-2.2
		c-0.1-0.1-0.1-0.2-0.3-0.2c0,0,0,0,0-0.1c0.3-0.1,0.6-0.3,0.9-0.4c0,0,0,0,0,0c-0.1,0.2,0.1,0.2,0.2,0.3c0.7,0.3,1.4,0.6,2.2,0.9
		c0,0,0,0,0.1,0c0-0.1,0-0.1,0-0.1c-0.2-0.5-0.4-0.9-0.7-1.4c-0.1-0.1-0.1-0.3-0.3-0.3c0,0,0,0,0-0.1
		C-173.4,434.3-173.1,434.2-172.8,434.1C-172.9,434.1-172.9,434.1-172.8,434.1z"/>
	<path d="M-197.7,428.3C-197.7,428.3-197.6,428.3-197.7,428.3c0.2,0.1,0.3,0,0.4,0c0.7-0.4,1.5-0.8,2.2-1.2c0.1-0.1,0.2-0.1,0.2-0.2
		c0,0,0,0,0.1-0.1c0.2,0.3,0.3,0.6,0.5,0.9c-0.3-0.1-0.3,0.1-0.4,0.2c-0.3,0.7-0.5,1.4-0.8,2.1c0,0,0,0.1-0.1,0.2
		c0.2-0.1,0.3-0.2,0.5-0.3c0.4-0.2,0.7-0.4,1.1-0.6c0.1-0.1,0.2-0.1,0.2-0.3c0,0,0,0,0-0.1c0.2,0.3,0.3,0.6,0.4,0.8c0,0,0,0,0,0
		c-0.2-0.1-0.3,0-0.4,0.1c-0.7,0.4-1.4,0.8-2.1,1.1c-0.1,0.1-0.2,0.1-0.2,0.3c0,0,0,0-0.1,0c-0.2-0.3-0.3-0.6-0.5-0.9c0,0,0,0,0,0
		c0.2,0.1,0.2,0,0.3-0.2c0.3-0.7,0.5-1.5,0.8-2.2c-0.1,0-0.1,0-0.1,0c-0.4,0.2-0.9,0.5-1.3,0.7c-0.2,0.1-0.2,0.1-0.4,0.4
		C-197.4,428.9-197.6,428.6-197.7,428.3z"/>
	<path d="M-166.9,409.4C-166.9,409.4-166.9,409.5-166.9,409.4c0.4,0.5,0.7,1,1,1.5c0.2,0.3,0.3,0.5,0.3,0.9c0,0.5-0.2,0.8-0.6,1.1
		c-0.4,0.3-0.8,0.6-1.3,0.6c-0.4,0-0.8-0.2-1-0.5c-0.3-0.4-0.5-0.7-0.8-1.1c-0.1-0.2-0.3-0.4-0.4-0.6c0,0,0.1,0,0.1,0
		c0.1,0.1,0.2,0,0.3-0.1c0.6-0.4,1.2-0.9,1.9-1.3C-167.2,409.8-167,409.7-166.9,409.4C-167,409.4-167,409.4-166.9,409.4z
		 M-168.7,411.6c0.2,0.3,0.4,0.6,0.6,0.9c0.2,0.2,0.5,0.3,0.8,0.3c0.4-0.1,0.8-0.4,1-0.7c0.1-0.2,0.2-0.4,0-0.6
		c-0.2-0.4-0.4-0.7-0.7-1C-167.5,410.8-168.1,411.2-168.7,411.6z"/>
	<path d="M-195.2,425.8C-195.2,425.8-195.2,425.8-195.2,425.8c-0.2-0.1-0.4-0.1-0.6,0c-0.8,0.2-1.5,0.3-2.3,0.5
		c-0.1,0-0.2,0.1-0.3,0.2c0,0,0,0,0,0c-0.1-0.7-0.3-1.3-0.4-2c-0.1-0.6,0.2-1,0.7-1.3c0.4-0.2,0.9-0.3,1.4-0.2
		c0.5,0.1,0.9,0.4,1,0.9c0.1,0.6,0.2,1.1,0.4,1.7C-195.2,425.6-195.2,425.7-195.2,425.8z M-195.8,425.1c-0.1-0.4-0.2-0.8-0.3-1.2
		c-0.1-0.3-0.3-0.4-0.6-0.5c-0.4-0.1-0.8,0-1.1,0.2c-0.3,0.2-0.4,0.4-0.4,0.7c0,0.4,0.1,0.7,0.2,1.1
		C-197.3,425.4-196.6,425.3-195.8,425.1z"/>
	<path d="M-168.4,429.8C-168.4,429.8-168.4,429.8-168.4,429.8c0,0.2,0.2,0.3,0.3,0.4c0.6,0.5,1.2,1.1,1.8,1.6
		c0.1,0.1,0.1,0.1,0.3,0.1c0,0,0,0,0.1,0c-0.2,0.2-0.4,0.5-0.6,0.7c-0.2,0.3-0.5,0.6-0.7,0.8c-0.5,0.5-1.1,0.6-1.8,0.2
		c-0.4-0.3-0.8-0.6-0.9-1.1c-0.1-0.4,0-0.8,0.2-1.2c0.3-0.4,0.6-0.7,0.9-1C-168.7,430.1-168.5,429.9-168.4,429.8z M-168.5,430.7
		c-0.2,0.3-0.5,0.6-0.7,0.9c-0.2,0.3-0.2,0.6,0,0.9c0.2,0.3,0.4,0.5,0.7,0.6c0.3,0.1,0.6,0.1,0.9-0.1c0.3-0.3,0.5-0.5,0.7-0.8
		C-167.4,431.7-168,431.2-168.5,430.7z"/>
	<path d="M-179.6,439.3c0.1-0.3,0.1-0.5,0.2-0.8c0,0,0.1,0,0.1,0c0.1,0.2,0.2,0.2,0.4,0.3c0.3,0.1,0.6,0.1,0.9,0
		c0.6-0.2,0.8-0.7,0.7-1.3c-0.1-0.6-0.6-0.9-1.2-0.8c-0.3,0-0.5,0.1-0.8,0.3c-0.1,0.1-0.1,0.1-0.1,0.2c0,0.1,0,0.2,0.1,0.3
		c0.3,0,0.5-0.1,0.7-0.1c0.1,0,0.1-0.1,0.2-0.2c0,0.3,0.1,0.5,0.1,0.8c0,0,0,0,0,0c-0.1-0.2-0.3-0.1-0.4-0.1
		c-0.4,0.1-0.8,0.1-1.2,0.2c0,0,0,0,0,0c0,0,0,0,0,0c0.1-0.1,0.1-0.3,0.1-0.4c0-0.1,0-0.3-0.1-0.4c0-0.1-0.1-0.2-0.2-0.3
		c0,0,0-0.1,0-0.1c0.6-0.5,1.2-0.8,2-0.8c0.9,0,1.5,0.7,1.6,1.5c0.1,1-0.6,1.7-1.6,1.8c-0.4,0.1-0.7,0-1.1-0.1
		C-179.3,439.3-179.4,439.3-179.6,439.3z"/>
	<path d="M-190.8,410c-0.2,0.2-0.4,0.5-0.6,0.7c0,0,0,0,0,0c0-0.3-0.2-0.4-0.4-0.6c-0.2-0.2-0.4-0.3-0.5-0.5
		c-0.4,0.4-0.8,0.8-1.2,1.3c0.1,0.1,0.3,0.2,0.4,0.4c0.1,0.1,0.2,0.2,0.3,0.3c0.1,0.1,0.2,0.3,0.5,0.2c0,0,0,0,0,0
		c-0.2,0.2-0.4,0.5-0.6,0.7c0,0,0,0,0,0c0.1-0.3-0.2-0.4-0.3-0.5c-0.5-0.5-1.1-1-1.6-1.5c-0.1-0.1-0.2-0.2-0.4-0.1c0,0,0,0,0-0.1
		c0.2-0.2,0.4-0.5,0.6-0.7c0,0,0,0,0,0c0,0.2,0.1,0.3,0.2,0.4c0.2,0.2,0.4,0.4,0.6,0.5c0.4-0.4,0.8-0.8,1.2-1.3
		c-0.1-0.1-0.2-0.2-0.3-0.3c-0.1-0.1-0.2-0.2-0.3-0.3c-0.1-0.1-0.2-0.3-0.5-0.2c0,0,0,0,0-0.1c0.2-0.2,0.4-0.5,0.6-0.7
		c0,0.3,0.3,0.4,0.4,0.6c0.5,0.5,1.1,1,1.7,1.5C-191,410-190.9,410-190.8,410z"/>
	<path d="M-189.2,406.4c0.2,0.2,0.3,0.5,0.4,0.7c0,0-0.1,0-0.1,0c-0.1-0.1-0.2,0-0.3,0c-0.3,0.2-0.6,0.4-0.9,0.6
		c0.2,0.3,0.3,0.5,0.5,0.8c0.6-0.3,1.1-0.7,1.6-1c0.1,0,0.1-0.1,0.1-0.3c0.2,0.2,0.3,0.5,0.4,0.7c-0.3-0.1-0.4,0.1-0.6,0.2
		c-0.6,0.4-1.3,0.8-1.9,1.2c0,0-0.1,0-0.1,0.1c0,0,0-0.1,0-0.1c0.1-0.1,0-0.2-0.1-0.3c-0.4-0.6-0.8-1.2-1.2-1.9
		c-0.1-0.2-0.2-0.4-0.5-0.5c0,0,0.1-0.1,0.1-0.1c0.6-0.4,1.2-0.8,1.8-1.1c0.3-0.2,0.3-0.2,0.4-0.5c0.2,0.2,0.3,0.5,0.4,0.7
		c0,0,0,0,0,0c-0.1-0.1-0.3,0-0.4,0.1c-0.4,0.3-0.9,0.5-1.3,0.8c0,0-0.1,0.1-0.1,0.1c0.1,0.2,0.3,0.4,0.4,0.6c0.3-0.2,0.7-0.4,1-0.7
		C-189.2,406.6-189.2,406.5-189.2,406.4z"/>
	<path d="M-198.6,418.6c0.3,0.2,0.5,0.3,0.8,0.4c-0.3,0.1-0.4,0.3-0.5,0.6c-0.1,0.3-0.2,0.5-0.1,0.8c0,0.1,0,0.1,0.1,0.2
		c0.1,0.1,0.2,0.2,0.3,0.2c0.2,0,0.2-0.1,0.2-0.3c0.1-0.3,0.1-0.6,0.2-1c0-0.1,0-0.2,0.1-0.3c0.2-0.4,0.5-0.6,0.9-0.6
		c0.4,0,0.8,0.2,0.9,0.6c0.2,0.6,0.1,1.3-0.2,1.9c-0.1,0.1-0.1,0.3-0.2,0.4c-0.2-0.1-0.5-0.2-0.7-0.4c0,0,0,0,0,0
		c0.3,0,0.4-0.3,0.5-0.5c0.1-0.3,0.2-0.6,0.1-1c0-0.1,0-0.1-0.1-0.2c-0.1-0.1-0.2-0.2-0.3-0.2c-0.2,0-0.2,0.1-0.2,0.3
		c-0.1,0.3-0.1,0.7-0.2,1c-0.1,0.5-0.4,0.8-0.9,0.8c-0.5,0-0.9-0.3-1-0.8c-0.1-0.4,0-0.8,0.1-1.2
		C-198.8,419.1-198.6,418.9-198.6,418.6z"/>
	<path d="M-162.6,420.5c0,0.3,0,0.6,0,1c-0.3-0.3-0.7-0.2-1-0.2c-0.4,0-0.8,0-1.2,0c-0.2,0-0.4,0.1-0.5,0.3c-0.1,0.3-0.1,0.6,0,0.9
		c0.1,0.2,0.2,0.4,0.5,0.4c0.5,0,1.1,0.1,1.6,0.1c0.1,0,0.2,0,0.3,0c0.1,0,0.3,0,0.3-0.1c0,0.3,0,0.6,0,0.9c0,0-0.1,0-0.1,0
		c-0.1-0.2-0.3-0.1-0.4-0.2c-0.6,0-1.1-0.1-1.7-0.1c-0.7,0-1-0.3-1.1-1c-0.1-0.4,0-0.8,0.1-1.3c0.2-0.7,0.5-0.8,1.1-0.8
		c0.6,0,1.2,0.1,1.8,0.1C-162.8,420.6-162.7,420.6-162.6,420.5z"/>
	<path d="M-176.1,407.1c-0.3-0.1-0.6-0.3-1-0.4c0.4-0.2,0.6-0.5,0.9-0.8c0.5-0.4,0.9-0.9,1.3-1.3c0.1-0.1,0.3-0.2,0.1-0.5
		c0,0,0,0,0,0c0.3,0.1,0.7,0.3,1,0.4c0,0,0,0,0,0c-0.2,0-0.2,0.2-0.2,0.4c0.1,0.9,0.1,1.8,0.2,2.7c0,0.1,0.1,0.3,0.1,0.4
		c-0.4-0.1-0.7-0.3-1.1-0.4c0,0,0,0,0,0c0,0,0,0,0.1,0c0.1,0,0.2-0.1,0.2-0.2c0-0.2,0-0.3,0-0.5c0,0-0.1-0.1-0.1-0.1
		c-0.4-0.1-0.7-0.3-1.1-0.4c0,0-0.1,0-0.1,0c-0.1,0.1-0.2,0.2-0.3,0.3C-176.2,406.8-176.3,406.9-176.1,407.1
		C-176.1,407-176.1,407-176.1,407.1z M-174.5,405.2c-0.3,0.3-0.6,0.6-0.9,0.8c0.3,0.1,0.6,0.2,0.9,0.3
		C-174.5,405.9-174.5,405.6-174.5,405.2z"/>
	<path d="M-192,431.3C-192,431.3-192.1,431.3-192,431.3c-0.2,0-0.3,0.1-0.4,0.2c-0.1,0.1-0.2,0.3-0.1,0.4c0,0.1,0.2,0.2,0.3,0.3
		c0.2,0.2,0.4,0.4,0.5,0.6c0.1,0.1,0.1,0.1,0.2,0c0.1,0,0.2-0.1,0.4-0.1c0.1,0,0.2-0.1,0.2-0.3c0,0,0,0,0-0.1
		c0.2,0.2,0.5,0.5,0.7,0.7c0,0,0,0,0,0c-0.2-0.1-0.3,0-0.5,0.1c-0.8,0.3-1.6,0.6-2.4,0.9c-0.2,0.1-0.4,0.1-0.3,0.3
		c-0.2-0.2-0.5-0.5-0.8-0.7c0,0,0,0,0,0c0.2,0.1,0.3-0.1,0.3-0.3c0.3-0.8,0.6-1.6,0.9-2.5c0.1-0.1,0.1-0.3,0-0.4c0,0,0,0,0,0
		C-192.5,430.7-192.3,431-192,431.3z M-193.2,433.5c0.4-0.2,0.8-0.3,1.1-0.4c-0.2-0.2-0.5-0.4-0.7-0.7
		C-192.9,432.7-193,433.1-193.2,433.5z"/>
	<path d="M-195.7,412c-0.3,0-0.3,0.2-0.4,0.3c-0.1,0.2-0.2,0.4-0.3,0.6c0.2,0.1,0.4,0.2,0.6,0.3c0.5,0.3,1,0.5,1.6,0.8
		c0.1,0,0.2,0,0.3,0c-0.1,0.3-0.3,0.5-0.4,0.8c0,0-0.1-0.1-0.1-0.1c0-0.1-0.1-0.2-0.1-0.2c-0.7-0.4-1.4-0.7-2.1-1.1c0,0,0,0-0.1,0
		c-0.1,0.3-0.3,0.6-0.4,0.9c0,0.1,0,0.2,0,0.3c-0.3-0.1-0.5-0.3-0.8-0.4c0,0,0,0,0,0c0.3,0,0.3-0.2,0.4-0.4c0.3-0.6,0.6-1.2,0.9-1.8
		c0.1-0.1,0.2-0.3,0-0.4c0,0,0.1,0,0.1,0C-196.2,411.7-196,411.9-195.7,412C-195.7,412-195.7,412-195.7,412z"/>
	<path d="M-166.6,427.4c-0.2,0.4-0.4,0.8-0.6,1.3c0,0.1-0.1,0.1-0.1,0.2c-0.1,0.2-0.2,0.3,0,0.5c0,0,0,0,0,0
		c-0.2-0.1-0.5-0.2-0.8-0.4c0,0,0-0.1,0-0.1c0.2,0,0.2-0.1,0.3-0.3c0.3-0.7,0.7-1.4,1-2.1c0,0,0-0.1,0.1-0.1c0,0.3,0.2,0.3,0.4,0.4
		c0.7,0.3,1.4,0.7,2.1,1c0.1,0,0.2,0.1,0.3,0c0,0,0,0,0.1,0c0,0,0,0,0,0.1c-0.1,0.3-0.2,0.5-0.4,0.8c0,0,0,0-0.1,0c0,0,0,0,0-0.1
		c0-0.1-0.1-0.1-0.1-0.2C-165.1,428.1-165.8,427.8-166.6,427.4C-166.6,427.4-166.6,427.4-166.6,427.4z"/>
	<path d="M-171.3,432.9C-171.3,432.9-171.3,432.9-171.3,432.9c0,0.3,0.1,0.4,0.2,0.5c0.4,0.5,0.8,1.1,1.2,1.6
		c0.1,0.2,0.2,0.5,0.5,0.4c0,0,0,0,0,0.1c-0.3,0.2-0.5,0.4-0.8,0.6c0,0,0,0,0,0c0.1-0.2,0-0.3-0.1-0.4c-0.5-0.6-1-1.3-1.5-1.9
		c-0.1-0.1-0.1-0.2-0.3-0.2c0,0,0,0-0.1,0C-171.8,433.2-171.6,433-171.3,432.9z"/>
	<path d="M-163.4,426.3c-0.1-0.3-0.3-0.2-0.5-0.3c-0.7-0.2-1.5-0.4-2.2-0.6c-0.1,0-0.2,0-0.3,0c0,0,0.1-0.7,0.2-0.9c0,0,0,0,0,0
		c0,0.2,0.2,0.2,0.3,0.2c0.8,0.2,1.6,0.4,2.4,0.6c0.1,0,0.2,0.1,0.3,0c0,0,0,0,0.1,0c0,0,0,0,0,0.1
		C-163.2,425.7-163.2,426-163.4,426.3C-163.3,426.3-163.3,426.3-163.4,426.3z"/>
</g>
</svg>
