<?xml version="1.0" encoding="utf-8"?>
<!-- Generator: Adobe Illustrator 19.0.0, SVG Export Plug-In . SVG Version: 6.00 Build 0)  -->
<svg version="1.1" id="Layer_1" xmlns="http://www.w3.org/2000/svg" xmlns:xlink="http://www.w3.org/1999/xlink" x="0px" y="0px"
	 viewBox="-202 400.9 38 40" style="enable-background:new -202 400.9 38 40;" xml:space="preserve">
<style type="text/css">
	.st0{fill:#FFFFFF;}
</style>
<g>
	<path d="M-186,422.9c-0.1,0-0.1,0.1-0.2,0.1c-0.3,0.1-0.6,0.2-1,0.3c-0.8,0.3-1.3,0.8-1.7,1.5c-0.4,0.7-0.5,1.5-0.5,2.4
		c0,0.4,0.1,0.9,0.2,1.3c0.3,0.7,0.8,1.3,1.5,1.7c0.7,0.4,1.5,0.6,2.3,0.4c0.1,0,0.3,0,0.4-0.1c0.5-0.1,0.8-0.4,0.9-0.9
		c0-0.2,0-0.3,0-0.5c0-4.5,0-9.1,0-13.6c0-1.4,0-2.8,0-4.2c0-0.2,0-0.2,0.2-0.2c0.6,0,1.2,0,1.8,0c0.2,0,0.2,0,0.2,0.2
		c0,1.8,0,3.5,0,5.3c0,4.1,0,8.2,0,12.3c0,0.2,0,0.5,0.1,0.7c0.1,0.5,0.4,0.9,1,1c0.8,0.1,1.5,0.1,2.3-0.2c1.1-0.5,1.8-1.3,2.1-2.5
		c0.1-0.5,0.1-1,0-1.5c-0.1-0.5-0.2-1.1-0.4-1.5c-0.5-1-1.3-1.5-2.3-1.8c-0.1,0-0.2,0-0.3-0.1c-0.1,0-0.1-0.1-0.1-0.1
		c0,0,0.1-0.1,0.1-0.1c0.3-0.2,0.7-0.3,0.9-0.6c0.5-0.5,0.8-1.1,1-1.8c0.2-1,0.1-2-0.3-2.9c-0.3-0.7-0.8-1.2-1.4-1.6
		c0,0-0.1-0.1-0.1-0.1c-0.1-0.1,0-0.2,0.2-0.2c0.2,0,0.4,0,0.6,0.1c0.6,0.1,1.2,0.2,1.7,0.4c0.6,0.3,1.2,0.6,1.6,1.2
		c0.5,0.7,0.6,1.4,0.5,2.2c-0.1,1.1-0.7,2-1.7,2.6c-0.5,0.3-1.1,0.6-1.6,0.7c0,0-0.1,0-0.1,0.1c0,0,0.1,0,0.1,0.1
		c0.7,0.1,1.5,0.3,2.2,0.6c0.6,0.2,1.1,0.6,1.5,1.1c0.5,0.6,0.7,1.2,0.8,2c0,0.6,0,1.2-0.3,1.8c-0.3,0.8-0.9,1.3-1.6,1.8
		c-0.7,0.4-1.6,0.7-2.4,0.8c-0.8,0.1-1.7,0.2-2.5,0.2c-1.8,0-3.6,0-5.4,0c-1.2,0-2.3-0.2-3.4-0.7c-0.6-0.3-1.2-0.6-1.7-1.1
		c-0.5-0.5-0.7-1.1-0.8-1.8c0-0.3-0.1-0.6-0.1-0.9c0-0.8,0.2-1.5,0.8-2c0.5-0.5,1-0.9,1.7-1.2c0.5-0.2,1.1-0.3,1.7-0.4
		c0.1,0,0.2,0,0.4-0.1c0,0,0.1,0,0.1,0c0,0,0,0,0,0c-0.1,0-0.2-0.1-0.4-0.1c-0.8-0.3-1.5-0.6-2.1-1.2c-0.8-0.8-1.1-1.8-0.9-3
		c0.1-0.4,0.2-0.8,0.4-1.2c0.3-0.5,0.8-0.8,1.3-1.1c0.7-0.4,1.5-0.5,2.3-0.6c0.1,0,0.3,0,0.4,0c0.1,0,0.1,0,0.2,0.1
		c0,0.1,0,0.2-0.1,0.2c-0.1,0.1-0.3,0.2-0.4,0.2c-0.7,0.5-1.1,1.2-1.3,2c-0.2,0.9-0.2,1.8,0,2.7c0.2,0.8,0.7,1.5,1.5,1.9
		c0.1,0,0.2,0.1,0.3,0.2C-186.1,422.8-186.1,422.9-186,422.9z"/>
	<path d="M-177.2,411.1c0.6,0,1.3,0,1.9,0c0.2,0,0.2,0,0.2,0.2c0.1,0.8,0.1,1.6,0.2,2.5c0,0.6,0.1,1.1,0.1,1.7c0,0,0,0.1,0,0.1
		c0,0,0,0.1,0,0.1c-0.1,0.1-0.4,0-0.4-0.1c-0.1-0.3-0.2-0.6-0.3-1c-0.3-0.9-0.9-1.6-1.6-2.1c-0.5-0.4-1.1-0.7-1.8-0.9
		c-0.1-0.1-0.3-0.1-0.4-0.2c0,0-0.1-0.1-0.1-0.1c0,0,0.1-0.1,0.1-0.1c0,0,0.1,0,0.1,0C-178.5,411.1-177.9,411.1-177.2,411.1z"/>
	<path d="M-186.2,411.3c-0.1,0-0.1,0.1-0.2,0.1c-0.4,0.2-0.8,0.4-1.2,0.5c-1.3,0.6-2.2,1.7-2.6,3.1c0,0.2-0.1,0.3-0.1,0.5
		c0,0.1-0.1,0.2-0.2,0.2c0,0-0.1,0-0.1,0c-0.1,0-0.2-0.1-0.2-0.2c0-0.3,0-0.6,0.1-1c0.1-0.8,0.1-1.6,0.2-2.4c0-0.3,0-0.6,0.1-0.9
		c0-0.1,0-0.2,0.2-0.2c1.3,0,2.6,0,3.8,0C-186.4,411.1-186.3,411.2-186.2,411.3C-186.2,411.2-186.2,411.3-186.2,411.3z"/>
	<path d="M-185.6,438.6C-185.7,438.6-185.7,438.6-185.6,438.6c-0.8-0.2-1.5-0.3-2.1-0.5c-0.3-0.1-0.5-0.2-0.6-0.6
		c-0.1-0.4,0.1-0.8,0.5-1c0,0,0,0,0.1,0c0,0,0,0,0,0c-0.3-0.3-0.3-0.6-0.2-1c0.1-0.3,0.4-0.5,0.8-0.5c0.3,0,0.6,0.1,0.9,0.2
		c0.5,0.1,1,0.2,1.4,0.4c0,0,0.1,0,0.1,0c0,0,0,0,0,0c-0.1,0-0.2,0.1-0.2,0.3c-0.2,0.8-0.4,1.6-0.6,2.5
		C-185.7,438.4-185.7,438.5-185.6,438.6C-185.6,438.6-185.6,438.6-185.6,438.6z M-185.7,435.9c-0.5-0.1-0.9-0.2-1.4-0.3
		c-0.2,0-0.3,0.1-0.4,0.3c-0.1,0.3,0,0.5,0.3,0.6c0.1,0,0.1,0,0.2,0.1c0.3,0.1,0.6,0.1,0.8,0.2c0.1,0,0.2,0,0.3,0.1
		C-185.9,436.4-185.8,436.2-185.7,435.9z M-186.3,438c0.1-0.2,0.1-0.5,0.2-0.7c0,0,0-0.1-0.1-0.1c-0.4-0.1-0.7-0.2-1.1-0.3
		c-0.3-0.1-0.4,0-0.5,0.3c0,0.2,0,0.4,0.3,0.4C-187.1,437.8-186.7,437.9-186.3,438z"/>
	<path d="M-169,416.2C-169,416.2-169,416.2-169,416.2c0.1,0.1,0.3,0.1,0.4,0c0.8-0.2,1.6-0.4,2.4-0.6c0.1,0,0.1-0.1,0.2-0.2
		c0,0,0,0,0,0.1c0.2,0.7,0.3,1.3,0.5,2c0,0.2,0,0.3,0,0.5c-0.1,0.6-1,0.8-1.3,0.4c0,0,0,0-0.1,0c0,0,0,0,0,0
		c-0.1,0.4-0.3,0.6-0.7,0.6c-0.4,0-0.7-0.1-0.9-0.5c-0.1-0.3-0.2-0.6-0.3-0.9c-0.1-0.5-0.2-1-0.3-1.4
		C-169,416.3-169,416.2-169,416.2z M-168.3,416.8c0,0.2,0.1,0.4,0.1,0.5c0.1,0.3,0.1,0.6,0.2,0.8c0.1,0.2,0.3,0.3,0.5,0.2
		c0.2-0.1,0.3-0.2,0.3-0.5c-0.1-0.4-0.2-0.8-0.3-1.2c0,0,0-0.1-0.1-0.1C-167.8,416.7-168,416.8-168.3,416.8z M-166.3,418
		c0.3,0,0.4-0.2,0.4-0.5c-0.1-0.4-0.2-0.8-0.3-1.2c0-0.1,0-0.1-0.1-0.1c-0.2,0-0.4,0.1-0.6,0.1c-0.1,0-0.1,0.1-0.1,0.1
		c0.1,0.2,0.1,0.4,0.2,0.6c0,0.2,0.1,0.4,0.1,0.6C-166.6,417.9-166.5,418-166.3,418z"/>
	<path d="M-187,406.9c0.1-0.1,0.1-0.2,0.1-0.3c-0.2-0.8-0.3-1.7-0.5-2.5c0-0.1-0.1-0.2-0.2-0.2c0.2,0,0.3-0.1,0.5-0.1
		c0.5-0.1,1-0.2,1.5-0.3c0.1,0,0.3,0,0.4,0c0.3,0,0.5,0.2,0.6,0.5c0.1,0.3,0.1,0.6-0.2,0.9c0,0,0,0,0,0c0,0,0,0,0,0
		c0.4,0.1,0.6,0.4,0.6,0.8c0,0.4-0.1,0.7-0.5,0.8c-0.2,0.1-0.4,0.1-0.7,0.2c-0.5,0.1-1.1,0.2-1.6,0.3
		C-186.9,406.9-186.9,406.9-187,406.9C-187,406.9-187,406.9-187,406.9z M-186.3,406.3c0.2,0,0.5-0.1,0.7-0.1c0.2,0,0.4-0.1,0.6-0.1
		c0.2-0.1,0.3-0.2,0.3-0.4c0-0.3-0.2-0.5-0.6-0.5c-0.3,0.1-0.7,0.1-1,0.2c-0.2,0-0.2,0-0.2,0.2C-186.4,405.8-186.4,406-186.3,406.3z
		 M-185,404.3c0-0.3-0.2-0.4-0.4-0.4c-0.1,0-0.1,0-0.2,0c-0.3,0.1-0.6,0.1-0.9,0.2c-0.1,0-0.1,0-0.1,0.1c0,0.2,0.1,0.4,0.1,0.6
		c0,0.1,0,0.1,0.1,0.1c0.1,0,0.3-0.1,0.5-0.1c0.3-0.1,0.5-0.1,0.8-0.2C-185.1,404.6-185,404.5-185,404.3z"/>
	<path d="M-176,437.4c-0.3,0.1-0.5,0.2-0.8,0.4c0,0,0,0,0,0c0.2-0.2,0-0.3,0-0.4c-0.4-0.7-0.7-1.5-1.1-2.2c0-0.1-0.1-0.2-0.2-0.2
		c0,0,0,0,0,0c0.3-0.1,0.5-0.3,0.8-0.4c0,0,0,0.1,0,0.1c-0.1,0.1,0,0.2,0.1,0.2c0.1,0.1,0.3,0.1,0.4,0.2c0.6,0.3,1.2,0.5,1.8,0.8
		c0,0,0.1,0,0.1,0c0,0,0-0.1,0-0.1c-0.3-0.5-0.5-1.1-0.8-1.6c0-0.1-0.1-0.1-0.2-0.2c0.2-0.1,0.5-0.2,0.7-0.4c0,0,0,0,0,0
		c-0.2,0.1,0,0.3,0,0.4c0.3,0.7,0.7,1.5,1,2.2c0.1,0.1,0.1,0.2,0.3,0.2c0,0,0,0,0,0c-0.3,0.1-0.6,0.3-0.9,0.4c0,0,0-0.1,0-0.1
		c0.1-0.1,0-0.2-0.1-0.2c-0.7-0.3-1.5-0.6-2.2-0.9c0,0,0,0-0.1,0c0,0,0,0.1,0,0.1c0.2,0.5,0.5,1,0.7,1.4
		C-176.2,437.2-176.2,437.4-176,437.4C-176,437.4-176,437.4-176,437.4z"/>
	<path d="M-196.6,426.4c0.1,0.3,0.3,0.5,0.4,0.8c0,0,0,0,0,0c-0.1,0-0.2,0-0.2,0.1c-0.1,0.2-0.2,0.5-0.3,0.7c-0.2,0.5-0.4,1-0.6,1.6
		c0,0,0,0.1,0,0.1c0.1,0,0.1,0,0.1-0.1c0.5-0.2,0.9-0.5,1.4-0.7c0.1-0.1,0.3-0.1,0.3-0.3c0,0,0,0,0,0c0.1,0.2,0.3,0.5,0.4,0.8
		c-0.1,0-0.1,0-0.1,0c-0.1,0-0.1,0-0.2,0c-0.8,0.4-1.6,0.8-2.4,1.3c-0.1,0-0.1,0.1-0.2,0.2c-0.1-0.3-0.3-0.6-0.5-0.9
		c0,0,0.1,0,0.1,0c0.1,0.1,0.2,0,0.2-0.1c0.1-0.3,0.2-0.6,0.3-0.9c0.2-0.4,0.3-0.8,0.5-1.3c0,0,0,0,0-0.1c0,0-0.1,0-0.1,0
		c-0.5,0.3-1,0.5-1.5,0.8c-0.1,0-0.1,0.1-0.2,0.2c-0.1-0.2-0.3-0.5-0.4-0.7c0,0,0,0,0,0c0.1,0.1,0.3,0,0.4,0
		c0.7-0.4,1.4-0.8,2.1-1.1C-196.7,426.6-196.7,426.6-196.6,426.4z"/>
	<path d="M-190.3,437.2C-190.4,437.2-190.4,437.2-190.3,437.2c-0.6-0.3-1.1-0.6-1.6-0.9c-0.2-0.1-0.3-0.2-0.5-0.3
		c-0.3-0.2-0.4-0.5-0.2-0.8c0.1-0.2,0.1-0.3,0.2-0.5c0.2-0.3,0.5-0.3,0.8-0.2c0,0,0.1,0,0.1,0c0,0,0,0,0,0c0-0.1,0-0.3,0-0.4
		c0-0.3,0-0.6-0.1-0.9c0-0.1-0.1-0.2-0.1-0.3c0.3,0.2,0.6,0.4,0.9,0.5c-0.2,0.1-0.2,0.1-0.2,0.3c0,0.3,0,0.7,0,1
		c0,0.1,0,0.1,0.1,0.2c0.2,0.1,0.4,0.2,0.5,0.3c0.1,0,0.1,0,0.1,0c0.2-0.3,0.3-0.6,0.5-0.8c0-0.1,0-0.1,0-0.2c0,0,0,0,0-0.1
		c0.3,0.1,0.5,0.3,0.8,0.5c0,0,0,0-0.1,0c-0.1,0-0.2,0.1-0.2,0.1c-0.4,0.7-0.8,1.4-1.2,2.2C-190.3,436.9-190.4,437.1-190.3,437.2
		C-190.3,437.2-190.3,437.2-190.3,437.2z M-190.3,435.7c-0.4-0.2-0.8-0.4-1.1-0.6c-0.2-0.1-0.4,0-0.5,0.2c-0.1,0.2-0.1,0.4,0.1,0.5
		c0.4,0.2,0.7,0.4,1.1,0.6c0,0,0,0,0,0C-190.6,436.2-190.5,435.9-190.3,435.7z"/>
	<path d="M-172.5,409.2c0,0,0.1-0.1,0.1-0.1c0.3-0.4,0.7-0.9,1-1.3c0.1-0.1,0.1-0.2,0.1-0.3c0,0,0,0,0,0c0.2,0.2,0.5,0.3,0.7,0.5
		c0,0,0,0,0,0c-0.1,0-0.2,0.1-0.3,0.2c-0.5,0.7-1,1.3-1.6,2c-0.1,0.1-0.1,0.2,0,0.3c0,0,0,0,0,0c-0.2-0.2-0.5-0.4-0.7-0.6
		c0.2-0.1,0.2-0.1,0.2-0.3c-0.1-0.8-0.1-1.5-0.2-2.3c0,0,0-0.1-0.1-0.1c0,0,0,0.1,0,0.1c-0.4,0.5-0.7,0.9-1.1,1.4
		c-0.1,0.1-0.1,0.2,0,0.3c0,0,0,0,0,0c-0.2-0.2-0.4-0.3-0.7-0.5c0,0,0,0,0,0c0.1,0,0.2-0.1,0.3-0.2c0.5-0.6,1-1.3,1.5-1.9
		c0.1-0.1,0.2-0.2,0.1-0.4c0,0,0,0,0,0c0.3,0.2,0.5,0.4,0.8,0.6c0,0,0,0,0,0c-0.2,0-0.2,0.1-0.2,0.3c0,0.5,0.1,1,0.1,1.5
		C-172.6,408.6-172.6,408.9-172.5,409.2C-172.5,409.2-172.5,409.2-172.5,409.2z"/>
	<path d="M-179.8,406.6c-0.4,0-0.7-0.1-1.1-0.1c0-0.1,0.1-0.1,0.1-0.2c0-0.1,0-0.1-0.1-0.2c-0.2-0.3-0.3-0.6-0.5-0.9
		c0,0-0.1-0.1-0.1-0.1c-0.2,0-0.4,0-0.6-0.1c-0.1,0-0.1,0-0.1,0.1c0,0.3-0.1,0.6-0.1,0.9c0,0.1,0,0.2,0.1,0.3c0,0,0,0,0,0
		c-0.3,0-0.6-0.1-0.9-0.1c0,0,0,0,0,0c0.2-0.1,0.2-0.2,0.2-0.3c0-0.4,0.1-0.9,0.1-1.3c0-0.4,0.1-0.7,0.1-1.1c0-0.1,0-0.2-0.1-0.3
		c0,0,0,0,0,0c0.1,0,0.1,0,0.2,0c0.6,0.1,1.1,0.1,1.7,0.2c0.2,0,0.4,0,0.5,0.1c0.5,0.1,0.6,0.5,0.6,0.9c0,0.1,0,0.2,0,0.3
		c-0.1,0.3-0.3,0.5-0.7,0.6c-0.1,0-0.1,0-0.2,0C-180.3,405.7-180.2,406.2-179.8,406.6z M-182.1,404.6c0.1,0,0.2,0,0.3,0
		c0.3,0,0.6,0.1,0.9,0.1c0.3,0,0.4-0.1,0.4-0.4c0-0.2-0.1-0.4-0.4-0.4c-0.3,0-0.6-0.1-0.9-0.1c-0.1,0-0.2,0-0.4,0
		C-182,404-182,404.3-182.1,404.6z"/>
	<path d="M-169.3,409.4C-169.3,409.4-169.3,409.4-169.3,409.4c0.4,0.6,0.7,1,1,1.5c0.2,0.2,0.3,0.5,0.3,0.8c0,0.3-0.1,0.5-0.2,0.8
		c-0.3,0.5-0.8,0.8-1.3,0.9c-0.4,0.1-0.8,0-1.1-0.4c-0.2-0.3-0.4-0.5-0.6-0.8c-0.2-0.3-0.4-0.5-0.6-0.8c0,0,0-0.1,0-0.1
		c0.2,0.1,0.3,0,0.4-0.1c0.6-0.4,1.2-0.9,1.9-1.3C-169.5,409.7-169.3,409.6-169.3,409.4C-169.3,409.4-169.3,409.4-169.3,409.4z
		 M-169.3,410.3c-0.6,0.4-1.2,0.8-1.8,1.3c0.2,0.3,0.5,0.6,0.7,0.9c0.2,0.2,0.4,0.3,0.7,0.2c0.4-0.1,0.7-0.3,1-0.6
		c0.2-0.3,0.2-0.5,0.1-0.8C-168.8,410.9-169.1,410.6-169.3,410.3z"/>
	<path d="M-170.7,429.3C-170.7,429.3-170.7,429.3-170.7,429.3c0,0.2,0.1,0.3,0.2,0.4c0.6,0.5,1.2,1,1.8,1.6c0.1,0.1,0.2,0.2,0.3,0.1
		c0,0,0,0,0,0c0,0,0,0,0,0.1c-0.4,0.5-0.8,0.9-1.2,1.4c-0.2,0.3-0.5,0.4-0.9,0.5c-0.3,0-0.5,0-0.7-0.1c-0.4-0.2-0.7-0.5-0.9-0.9
		c-0.3-0.4-0.3-0.9,0-1.3c0.2-0.3,0.4-0.5,0.6-0.8C-171.2,429.8-171,429.6-170.7,429.3z M-170.8,430.2c-0.2,0.3-0.5,0.5-0.7,0.8
		c-0.2,0.3-0.2,0.6,0,0.9c0.2,0.3,0.4,0.5,0.7,0.6c0.3,0.1,0.6,0.2,0.8-0.1c0.3-0.3,0.6-0.6,0.8-0.9
		C-169.7,431.1-170.3,430.7-170.8,430.2z"/>
	<path d="M-196.9,425.4C-196.9,425.4-197,425.4-196.9,425.4c-0.1-0.1-0.2-0.1-0.3-0.1c-0.9,0.2-1.7,0.3-2.6,0.5
		c-0.1,0-0.2,0.1-0.2,0.2c0-0.1-0.1-0.3-0.1-0.4c-0.1-0.4-0.2-0.9-0.2-1.3c0-0.2,0-0.4,0-0.6c0-0.3,0.2-0.6,0.5-0.8
		c0.4-0.3,1-0.4,1.5-0.4c0.6,0.1,1,0.4,1.1,1C-197.1,424.2-197,424.8-196.9,425.4C-196.9,425.4-196.9,425.4-196.9,425.4z
		 M-199.9,424.1c0.1,0.4,0.1,0.7,0.2,1.1c0,0.1,0.1,0.1,0.1,0.1c0.6-0.1,1.2-0.2,1.8-0.4c0.2-0.1,0.3-0.1,0.2-0.3
		c-0.1-0.3-0.1-0.6-0.2-0.8c-0.1-0.3-0.3-0.5-0.6-0.5c-0.4-0.1-0.8,0-1.2,0.3C-199.7,423.6-199.8,423.8-199.9,424.1z"/>
	<path d="M-181.5,436.8c0.3,0,0.5-0.1,0.7-0.1c0.1,0,0.1-0.1,0.2-0.2c0,0.2,0.1,0.5,0.1,0.7c0,0,0,0,0,0c-0.1-0.1-0.2-0.1-0.4-0.1
		c-0.4,0.1-0.8,0.1-1.1,0.2c0,0-0.1,0-0.1,0c0.2-0.2,0.1-0.4,0.1-0.6c0-0.1,0-0.2,0-0.2c0-0.1,0-0.2-0.2-0.3c0,0,0-0.1,0-0.1
		c0.6-0.5,1.2-0.8,1.9-0.7c0.8,0,1.4,0.6,1.5,1.4c0.1,0.5,0,1-0.4,1.4c-0.3,0.3-0.7,0.4-1.1,0.5c-0.4,0.1-0.7,0-1.1-0.1
		c-0.1,0-0.2,0-0.3,0c0,0,0.1-0.5,0.2-0.8c0,0,0,0,0,0c0.1,0.3,0.4,0.3,0.6,0.3c0.3,0,0.7,0,1-0.2c0.4-0.3,0.5-0.7,0.4-1.2
		c-0.1-0.4-0.5-0.7-0.9-0.8c-0.4,0-0.8,0.1-1.1,0.3c-0.1,0-0.1,0.1-0.1,0.2C-181.5,436.5-181.5,436.6-181.5,436.8z"/>
	<path d="M-194.9,407.9c-0.1,0.2,0,0.3,0.1,0.3c0.6,0.5,1.2,1.1,1.8,1.6c0.1,0.1,0.2,0.2,0.3,0.1c0,0,0,0,0,0
		c-0.2,0.2-0.4,0.4-0.6,0.7c0,0,0,0,0,0c0-0.2-0.1-0.2-0.2-0.3c-0.2-0.2-0.5-0.4-0.7-0.7c-0.4,0.4-0.8,0.8-1.2,1.3
		c0,0,0,0.1,0.1,0.1c0.2,0.2,0.5,0.4,0.7,0.7c0.1,0.1,0.2,0.2,0.3,0.1c0,0,0,0,0,0.1c-0.2,0.2-0.4,0.4-0.6,0.7c0,0,0,0,0,0
		c0.1-0.2-0.1-0.3-0.2-0.4c-0.6-0.5-1.1-1-1.7-1.5c-0.1-0.1-0.2-0.2-0.4-0.1c0,0,0,0,0,0c0.2-0.2,0.4-0.4,0.6-0.7c0,0,0,0,0,0
		c0,0.1,0,0.2,0.1,0.3c0.2,0.2,0.4,0.4,0.6,0.5c0,0,0.1,0.1,0.1,0c0.4-0.4,0.7-0.8,1.1-1.2c0,0,0,0,0,0c-0.1-0.1-0.2-0.2-0.3-0.3
		c-0.1-0.1-0.2-0.2-0.4-0.3c-0.1-0.1-0.2-0.2-0.4-0.1c0,0,0,0,0,0C-195.3,408.3-195.1,408.1-194.9,407.9
		C-194.9,407.9-194.9,407.9-194.9,407.9z"/>
	<path d="M-191.4,408.5c0,0,0.1,0,0.1-0.1c0.5-0.3,0.9-0.6,1.4-0.9c0.1-0.1,0.3-0.1,0.2-0.3c0,0,0,0,0.1,0c0.1,0.2,0.3,0.4,0.4,0.7
		c0,0,0,0,0,0c-0.1-0.1-0.2,0-0.3,0c-0.7,0.4-1.4,0.9-2.1,1.3c0,0,0,0-0.1,0c0,0,0,0-0.1,0c0,0,0,0,0,0c0.1-0.1,0-0.2,0-0.3
		c-0.4-0.7-0.9-1.4-1.3-2.1c-0.1-0.1-0.1-0.2-0.2-0.2c0,0,0,0,0,0c0,0,0.1-0.1,0.1-0.1c0.6-0.4,1.3-0.8,1.9-1.2
		c0.1-0.1,0.3-0.1,0.3-0.4c0,0,0,0,0,0c0.1,0.2,0.3,0.4,0.4,0.7c0,0,0,0,0,0c-0.2-0.1-0.3,0-0.4,0.1c-0.4,0.3-0.8,0.5-1.3,0.8
		c0,0-0.1,0-0.1,0.1c0.1,0.2,0.3,0.4,0.4,0.6c0,0,0.1,0,0.1-0.1c0.3-0.2,0.5-0.3,0.8-0.5c0.1-0.1,0.2-0.1,0.2-0.3c0,0,0,0,0,0
		c0.1,0.2,0.3,0.4,0.4,0.6c0,0,0,0,0,0c-0.1-0.1-0.2,0-0.4,0.1c-0.3,0.2-0.6,0.4-0.9,0.6C-191.7,408-191.6,408.3-191.4,408.5z"/>
	<path d="M-197.8,421.4c-0.2-0.1-0.5-0.2-0.7-0.4c0,0,0,0,0,0c0.2,0,0.3-0.2,0.4-0.3c0.2-0.4,0.3-0.7,0.2-1.1c0-0.1-0.1-0.2-0.2-0.3
		c-0.2-0.2-0.4-0.1-0.5,0.1c-0.1,0.2-0.1,0.5-0.2,0.8c0,0.1-0.1,0.3-0.1,0.4c-0.2,0.6-0.9,0.8-1.4,0.4c-0.2-0.2-0.3-0.5-0.4-0.8
		c0-0.5,0.1-0.9,0.3-1.3c0.1-0.1,0.2-0.2,0.1-0.4c0,0,0,0,0,0c0.2,0.1,0.5,0.3,0.7,0.4c-0.5,0.2-0.6,0.7-0.6,1.1
		c0,0.2,0,0.3,0.1,0.5c0.1,0.1,0.2,0.2,0.3,0.2c0.1,0,0.2-0.1,0.2-0.2c0.1-0.3,0.1-0.6,0.2-0.9c0-0.1,0.1-0.3,0.1-0.4
		c0.1-0.3,0.4-0.5,0.8-0.5c0.4,0,0.7,0.1,0.9,0.5c0.2,0.3,0.2,0.7,0.2,1c0,0.4-0.2,0.8-0.4,1.1
		C-197.8,421.2-197.8,421.3-197.8,421.4z"/>
	<path d="M-165,420.3c0,0.3,0,0.6,0,0.9c-0.2-0.1-0.2-0.2-0.4-0.2c-0.5,0-1.1-0.1-1.6-0.1c-0.4,0-0.5,0.1-0.6,0.5
		c-0.1,0.2-0.1,0.5,0,0.7c0.1,0.3,0.3,0.5,0.6,0.5c0.5,0,1,0,1.5,0.1c0,0,0.1,0,0.1,0c0.1,0,0.3,0.1,0.4-0.1c0,0,0,0,0,0
		c0,0.3,0,0.6,0,0.8c0,0,0,0,0,0c-0.1-0.1-0.2-0.1-0.3-0.2c-0.4,0-0.9,0-1.3-0.1c-0.2,0-0.4,0-0.6-0.1c-0.4-0.1-0.7-0.3-0.8-0.8
		c-0.1-0.5-0.1-1,0.1-1.4c0.2-0.5,0.4-0.7,0.9-0.7c0.4,0,0.9,0,1.3,0.1c0.2,0,0.4,0,0.7,0C-165.2,420.4-165.1,420.3-165,420.3z"/>
	<path d="M-178.3,407.1c-0.3-0.1-0.6-0.2-0.9-0.4c0.2,0,0.3-0.2,0.4-0.3c0.6-0.6,1.2-1.2,1.8-1.7c0,0,0.1-0.1,0.1-0.1
		c0.1-0.1,0.1-0.2,0-0.2c0,0,0,0,0-0.1c0.3,0.1,0.7,0.3,1,0.4c0,0,0,0.1,0,0.1c-0.1,0-0.2,0.1-0.2,0.2c0,0.5,0.1,0.9,0.1,1.4
		c0,0.3,0,0.6,0.1,0.9c0,0.2,0,0.3,0,0.5c0,0.1,0.1,0.2,0.1,0.3c-0.3-0.1-0.7-0.3-1-0.4c0,0,0,0,0,0c0.2,0,0.2-0.1,0.2-0.2
		c0-0.1,0-0.3,0-0.4c0,0,0-0.1-0.1-0.1c-0.4-0.1-0.7-0.3-1.1-0.4c0,0-0.1,0-0.1,0c-0.1,0.1-0.2,0.2-0.3,0.3
		C-178.4,406.9-178.4,406.9-178.3,407.1C-178.3,407-178.3,407.1-178.3,407.1C-178.3,407.1-178.3,407.1-178.3,407.1z M-177.6,406.1
		c0.3,0.1,0.6,0.2,0.9,0.3c0-0.4,0-0.8,0-1.2C-177,405.5-177.3,405.8-177.6,406.1z"/>
	<path d="M-193.8,430.7C-193.8,430.7-193.9,430.8-193.8,430.7c-0.2,0-0.3,0-0.3,0.2c0,0.1-0.1,0.2-0.1,0.4c0,0.1,0,0.1,0,0.1
		c0.3,0.3,0.5,0.5,0.8,0.8c0.1,0.1,0.1,0.1,0.2,0c0.1-0.1,0.3-0.1,0.4-0.1c0.1-0.1,0.2-0.1,0.1-0.2c0,0,0,0,0-0.1
		c0.2,0.2,0.5,0.4,0.7,0.7c0,0,0,0.1,0,0.1c-0.2-0.1-0.3,0-0.4,0c-0.1,0-0.2,0.1-0.2,0.1c-0.7,0.3-1.4,0.5-2.2,0.8
		c-0.2,0.1-0.3,0.1-0.3,0.3c-0.2-0.2-0.5-0.5-0.7-0.7c0,0,0,0,0,0c0.2,0,0.2,0,0.3-0.2c0.3-0.8,0.6-1.6,0.9-2.5
		c0.1-0.1,0.1-0.3,0-0.4C-194.3,430.2-194.1,430.5-193.8,430.7z M-194.5,431.8c-0.1,0.3-0.3,0.7-0.4,1.1c0,0,0,0,0,0
		c0.4-0.1,0.7-0.3,1.1-0.4C-194.1,432.3-194.3,432.1-194.5,431.8z"/>
	<path d="M-197.4,412c-0.2,0-0.3,0.2-0.3,0.3c-0.1,0.2-0.2,0.4-0.3,0.6c0,0,0.1,0,0.1,0.1c0.7,0.3,1.3,0.7,2,1
		c0.1,0.1,0.2,0.1,0.3,0c0,0,0,0,0,0c-0.1,0.3-0.3,0.5-0.4,0.8c0,0,0,0,0,0c0-0.3-0.2-0.3-0.3-0.3c-0.6-0.3-1.2-0.6-1.8-0.9
		c0,0-0.1,0-0.1-0.1c0,0.1-0.1,0.1-0.1,0.2c-0.1,0.2-0.2,0.4-0.3,0.6c-0.1,0.1-0.1,0.2,0,0.3c-0.1,0-0.6-0.2-0.7-0.3c0,0,0,0,0,0
		c0.2,0,0.2-0.1,0.3-0.2c0.3-0.7,0.7-1.3,1-2c0.1-0.1,0.1-0.2,0-0.3C-198.1,411.6-197.6,411.8-197.4,412z"/>
	<path d="M-169,427c-0.1,0.1-0.1,0.3-0.2,0.4c-0.2,0.3-0.3,0.7-0.5,1c-0.1,0.1-0.2,0.3,0,0.5c0,0,0,0,0,0c-0.2-0.1-0.5-0.2-0.7-0.3
		c0,0,0,0,0-0.1c0.2,0,0.2-0.1,0.3-0.2c0.3-0.7,0.7-1.4,1-2.1c0,0,0-0.1,0.1-0.1c0,0.2,0.2,0.2,0.3,0.3c0.7,0.3,1.4,0.7,2.2,1
		c0.1,0.1,0.2,0.1,0.4,0c0,0,0,0,0,0c-0.1,0.3-0.3,0.5-0.4,0.8c0,0,0,0,0,0c0-0.2-0.2-0.2-0.3-0.3c-0.6-0.3-1.3-0.6-1.9-0.9
		C-168.9,427-168.9,427-169,427z"/>
	<path d="M-173.6,432.3c-0.1,0.2,0,0.3,0.1,0.4c0.5,0.6,0.9,1.2,1.4,1.8c0.1,0.1,0.1,0.2,0.3,0.2c0,0,0,0,0,0
		c-0.2,0.2-0.5,0.4-0.7,0.5c0,0,0,0,0,0c0.1-0.2,0-0.3-0.1-0.4c-0.5-0.6-1-1.3-1.5-1.9c-0.1-0.1-0.1-0.2-0.3-0.1c0,0,0,0,0,0
		C-174.1,432.7-173.8,432.5-173.6,432.3C-173.6,432.3-173.6,432.3-173.6,432.3z"/>
	<path d="M-165.6,425c-0.1,0.3-0.1,0.6-0.2,0.9c0,0,0,0,0,0c0-0.2-0.2-0.2-0.3-0.2c-0.8-0.2-1.6-0.4-2.4-0.6c-0.1,0-0.2,0-0.3,0.1
		c0,0,0,0-0.1,0c0.1-0.3,0.1-0.6,0.2-0.9c0,0,0,0.1,0.1,0.1c0,0,0.1,0.1,0.1,0.1c0.9,0.2,1.7,0.4,2.6,0.7
		C-165.8,425.1-165.7,425-165.6,425z"/>
	<path class="st0" d="M-185.7,435.9c-0.1,0.3-0.1,0.6-0.2,0.9c-0.1,0-0.2,0-0.3-0.1c-0.3-0.1-0.6-0.1-0.8-0.2c-0.1,0-0.1,0-0.2-0.1
		c-0.3-0.1-0.3-0.3-0.3-0.6c0.1-0.2,0.2-0.3,0.4-0.3C-186.6,435.7-186.2,435.8-185.7,435.9z"/>
	<path class="st0" d="M-186.3,438c-0.4-0.1-0.8-0.2-1.2-0.3c-0.3-0.1-0.3-0.2-0.3-0.4c0.1-0.3,0.2-0.4,0.5-0.3
		c0.4,0.1,0.7,0.2,1.1,0.3c0,0,0.1,0,0.1,0.1C-186.1,437.5-186.2,437.7-186.3,438z"/>
	<path class="st0" d="M-168.3,416.8c0.3-0.1,0.5-0.1,0.8-0.2c0,0,0.1,0,0.1,0.1c0.1,0.4,0.2,0.8,0.3,1.2c0,0.2-0.1,0.4-0.3,0.5
		c-0.2,0.1-0.4,0-0.5-0.2c-0.1-0.3-0.2-0.6-0.2-0.8C-168.2,417.2-168.3,417-168.3,416.8z"/>
	<path class="st0" d="M-166.3,418c-0.1,0-0.3-0.1-0.3-0.2c-0.1-0.2-0.1-0.4-0.1-0.6c-0.1-0.2-0.1-0.4-0.2-0.6c0-0.1,0-0.1,0.1-0.1
		c0.2,0,0.4-0.1,0.6-0.1c0.1,0,0.1,0,0.1,0.1c0.1,0.4,0.2,0.8,0.3,1.2C-165.9,417.8-166,418-166.3,418z"/>
	<path class="st0" d="M-186.3,406.3c0-0.2-0.1-0.5-0.1-0.7c0-0.2,0-0.2,0.2-0.2c0.3-0.1,0.7-0.1,1-0.2c0.3-0.1,0.6,0.1,0.6,0.5
		c0,0.2-0.1,0.3-0.3,0.4c-0.2,0.1-0.4,0.1-0.6,0.1C-185.8,406.2-186.1,406.2-186.3,406.3z"/>
	<path class="st0" d="M-185,404.3c0,0.2-0.1,0.3-0.2,0.3c-0.2,0.1-0.5,0.1-0.8,0.2c-0.1,0-0.3,0-0.5,0.1c-0.1,0-0.1,0-0.1-0.1
		c0-0.2-0.1-0.4-0.1-0.6c0-0.1,0-0.1,0.1-0.1c0.3-0.1,0.6-0.1,0.9-0.2c0.1,0,0.1,0,0.2,0C-185.2,403.9-185,404-185,404.3z"/>
	<path class="st0" d="M-190.3,435.7c-0.1,0.3-0.3,0.5-0.4,0.7c0,0,0,0,0,0c-0.4-0.2-0.7-0.4-1.1-0.6c-0.2-0.1-0.2-0.3-0.1-0.5
		c0.1-0.2,0.3-0.3,0.5-0.2C-191.1,435.2-190.7,435.4-190.3,435.7z"/>
	<path class="st0" d="M-182.1,404.6c0-0.3,0.1-0.6,0.1-0.8c0.1,0,0.3,0,0.4,0c0.3,0,0.6,0.1,0.9,0.1c0.3,0,0.4,0.2,0.4,0.4
		c0,0.3-0.2,0.4-0.4,0.4c-0.3,0-0.6-0.1-0.9-0.1C-181.8,404.6-181.9,404.6-182.1,404.6z"/>
	<path class="st0" d="M-169.3,410.3c0.2,0.3,0.4,0.6,0.6,0.9c0.2,0.3,0.1,0.6-0.1,0.8c-0.2,0.3-0.6,0.6-1,0.6c-0.3,0-0.5,0-0.7-0.2
		c-0.2-0.3-0.5-0.6-0.7-0.9C-170.4,411.2-169.9,410.7-169.3,410.3z"/>
	<path class="st0" d="M-170.8,430.2c0.6,0.5,1.1,0.9,1.7,1.4c-0.3,0.3-0.5,0.6-0.8,0.9c-0.2,0.2-0.5,0.2-0.8,0.1
		c-0.3-0.1-0.5-0.3-0.7-0.6c-0.2-0.3-0.2-0.6,0-0.9C-171.3,430.7-171.1,430.5-170.8,430.2z"/>
	<path class="st0" d="M-199.9,424.1c0-0.3,0.1-0.5,0.3-0.6c0.4-0.2,0.8-0.3,1.2-0.3c0.3,0.1,0.5,0.2,0.6,0.5
		c0.1,0.3,0.1,0.5,0.2,0.8c0.1,0.3,0,0.3-0.2,0.3c-0.6,0.1-1.2,0.2-1.8,0.4c0,0-0.1,0-0.1-0.1C-199.7,424.8-199.8,424.4-199.9,424.1
		z"/>
	<path class="st0" d="M-177.6,406.1c0.3-0.3,0.6-0.6,0.9-0.8c0,0.4,0,0.7,0,1.2C-177,406.3-177.3,406.2-177.6,406.1z"/>
	<path class="st0" d="M-194.5,431.8c0.2,0.2,0.5,0.4,0.7,0.7c-0.4,0.1-0.7,0.3-1.1,0.4c0,0,0,0,0,0
		C-194.8,432.5-194.7,432.2-194.5,431.8z"/>
</g>
</svg>
